<?xml version="1.0" encoding="UTF-8"?>
<svg width="1191px" height="1172px" viewBox="0 0 1191 1172" version="1.1" xmlns="http://www.w3.org/2000/svg" xmlns:xlink="http://www.w3.org/1999/xlink">
    <!-- Generator: Sketch 61.2 (89653) - https://sketch.com -->
    <title>ilustracoes/pessoas/phone-04</title>
    <desc>Created with Sketch.</desc>
    <g id="Symbols" stroke="none" stroke-width="1" fill="none" fill-rule="evenodd">
        <g id="ilustracoes/pessoas/phone-04" fill-rule="nonzero">
            <g>
                <path d="M974.60265,939.118928 L927.123641,949.672436 C898.108692,954.94919 874.369187,976.056206 861.180574,1002.43998 L842.716515,1047.29239 C821.614733,1094.78317 763.584834,1115.89019 718.743548,1089.50642 L676.539984,1065.76103 C650.162757,1052.56914 618.510085,1049.93076 592.132858,1063.12265 L547.291572,1086.86804 C499.812563,1110.61343 444.420386,1089.50642 423.318604,1039.37725 L404.854545,994.524845 C394.303655,968.141075 370.56415,947.034059 341.5492,939.118928 L294.070192,928.56542 C243.95346,915.373535 212.300788,862.605994 230.764847,812.476831 L246.591183,764.986044 C257.142074,735.963897 251.866628,706.94175 233.402569,683.196356 L204.38762,643.620701 C172.734947,601.406669 185.923561,540.723997 230.764847,514.340227 L272.96841,487.956457 C299.345637,472.126195 315.171973,445.742424 315.171973,416.720277 L317.809696,366.591114 C320.447419,313.823573 367.926427,276.886295 420.680882,284.801426 L468.15989,292.716557 C497.17484,297.993311 526.18979,287.439803 547.291572,266.332787 L581.581967,229.395508 C618.510085,189.819853 679.177707,192.45823 713.468102,232.033885 L745.120775,268.971164 C763.584834,290.07818 792.599783,303.270065 821.614733,297.993311 L871.731465,292.716557 C924.485919,287.439803 969.327205,327.015458 971.964927,379.782999 L971.964927,429.912162 C971.964927,458.934309 987.791264,485.31808 1011.53077,503.786719 L1053.73433,530.170489 C1098.57562,559.192636 1106.48879,619.875308 1074.83611,659.450963 L1043.18344,696.388242 C1024.71938,720.133635 1019.44394,749.155782 1027.3571,778.177929 L1040.54572,825.668716 C1059.00978,878.436256 1027.3571,928.56542 974.60265,939.118928 Z" id="Path" fill="#E7F8D9"></path>
                <path d="M771.012768,1169.36148 C771.012768,1169.36148 771.012768,1169.36148 778.930374,1169.36148 C805.322394,1166.72295 829.075212,1156.16886 850.188828,1140.33772 C871.302443,1124.50658 884.498453,1100.75987 895.055261,1079.65169 C902.972867,1066.45907 908.251271,1050.62793 913.529675,1037.43532 C918.808079,1024.2427 929.364887,1016.32713 939.921695,1011.05009 C945.200098,1008.41156 950.478502,1005.77304 958.396108,1005.77304 L979.509724,1000.49599 C987.42733,997.857471 992.705734,997.857471 1000.62334,995.218948 C1008.54095,992.580425 1016.45855,992.580425 1024.37616,989.941902 C1045.48977,982.026332 1061.32499,971.472239 1077.1602,955.6411 C1090.35621,939.809961 1100.91301,921.340299 1106.19142,900.232114 C1111.46982,879.123929 1114.10902,855.37722 1108.83062,834.269035 C1106.19142,823.714942 1103.55222,813.160849 1100.91301,802.606757 L1095.63461,786.775618 C1092.99541,781.498572 1092.99541,776.221525 1092.99541,770.944479 C1090.35621,757.751863 1092.99541,747.19777 1098.27381,736.643678 C1100.91301,731.366631 1103.55222,726.089585 1108.83062,720.812539 L1122.02663,704.9814 L1135.22264,689.150261 C1140.50104,683.873214 1143.14025,675.957645 1148.41865,670.680599 C1156.33626,657.487983 1161.61466,644.295367 1164.25386,628.464228 C1169.53227,607.356043 1166.89306,586.247857 1158.97546,567.778195 C1158.97546,562.501149 1153.69705,551.947056 1148.41865,541.392963 C1140.50104,528.200348 1129.94424,512.369209 1116.74823,501.815116 C1108.83062,496.53807 1100.91301,491.261023 1092.99541,485.983977 C1085.0778,480.706931 1077.1602,475.429884 1071.88179,470.152838 C1063.96419,464.875792 1058.68578,462.237268 1053.40738,456.960222 C1048.12898,451.683176 1045.48977,449.044653 1042.85057,443.767606 C1040.21137,435.852037 1037.57217,427.936467 1034.93297,420.020898 C1034.93297,412.105328 1034.93297,401.551236 1034.93297,393.635666 C1034.93297,388.35862 1034.93297,380.44305 1034.93297,372.527481 C1034.93297,361.973388 1034.93297,348.780772 1029.65456,335.588157 C1024.37616,309.202925 1005.90174,288.09474 997.984138,280.17917 C990.066532,269.625077 976.870522,261.709508 966.313714,253.793938 C953.117704,245.878369 939.921695,243.239846 926.725685,240.601323 C918.808079,237.962799 913.529675,237.962799 905.612069,237.962799 C897.694463,237.962799 892.416059,237.962799 884.498453,240.601323 C871.302443,243.239846 858.106433,243.239846 844.910424,245.878369 C842.271222,245.878369 836.992818,245.878369 834.353616,245.878369 C831.714414,245.878369 829.075212,245.878369 823.796808,245.878369 C818.518404,245.878369 810.600798,243.239846 805.322394,240.601323 C800.04399,237.962799 794.765586,232.685753 792.126384,230.04723 C789.487182,227.408707 786.84798,224.770184 786.84798,222.13166 L778.930374,214.216091 C773.65197,206.300521 765.734365,195.746429 760.455961,187.830859 C752.538355,179.91529 739.342345,164.084151 715.589527,153.530058 L715.589527,153.530058 C681.279902,140.337442 646.970276,135.060396 610.021448,145.614489 C591.547035,150.891535 573.072621,161.445628 559.876611,174.638243 C551.959005,182.553813 546.680601,187.830859 541.402197,193.107906 C536.123793,198.384952 530.845389,206.300521 525.566985,211.577568 L512.370975,216.854614 C509.731773,219.493137 507.092572,222.13166 504.45337,224.770184 C499.174966,230.04723 491.25736,232.685753 483.339754,232.685753 C480.700552,232.685753 475.422148,232.685753 472.782946,232.685753 L467.504542,232.685753 L462.226138,232.685753 L435.834118,227.408707 C427.916512,227.408707 419.998907,224.770184 409.442099,224.770184 C404.163695,224.770184 398.885291,224.770184 396.246089,224.770184 C390.967685,224.770184 385.689281,224.770184 383.050079,224.770184 C364.575665,227.408707 346.101251,232.685753 330.26604,243.239846 C309.152424,256.432462 290.67801,277.540647 280.121202,301.287355 C274.842798,314.479971 272.203596,325.034064 269.564394,338.22668 C261.646788,348.780772 261.646788,361.973388 259.007586,372.527481 C259.007586,380.44305 259.007586,388.35862 256.368384,396.274189 C256.368384,404.189759 256.368384,409.466805 253.729182,417.382375 C248.450779,430.57499 240.533173,441.129083 229.976365,446.406129 C216.780355,454.321699 206.223547,462.237268 193.027537,470.152838 C179.831527,478.068407 166.635517,485.983977 156.07871,499.176593 C140.243498,515.007732 132.325892,533.477394 127.047488,554.585579 C121.769084,575.693765 124.408286,596.80195 127.047488,617.910135 C129.68669,628.464228 132.325892,639.018321 137.604296,649.572413 C142.8827,657.487983 150.800306,665.403552 156.07871,675.957645 L174.553123,702.342877 L179.831527,707.619923 C179.831527,710.258446 182.470729,710.258446 182.470729,712.896969 C185.109931,718.174016 185.109931,720.812539 187.749133,726.089585 C190.388335,739.282201 190.388335,749.836294 185.109931,763.028909 L171.913921,802.606757 C161.357114,828.991988 161.357114,860.654266 169.274719,889.678021 C174.553123,910.786207 187.749133,926.617346 200.945143,942.448485 C203.584345,945.087008 211.501951,953.002577 224.697961,960.918147 C235.254769,968.833716 253.729182,976.749286 272.203596,982.026332 C280.121202,984.664855 290.67801,987.303378 298.595616,989.941902 C306.513222,992.580425 317.07003,995.218948 322.348434,997.857471 C335.544444,1003.13452 346.101251,1013.68861 351.379655,1021.60418 C356.658059,1026.88123 359.297261,1037.43532 361.936463,1045.35089 C364.575665,1053.26646 369.854069,1063.82055 372.493271,1071.73612 C375.132473,1079.65169 383.050079,1103.3984 401.524493,1121.86806 C409.442099,1132.42215 419.998907,1140.33772 430.555714,1145.61477 C441.112522,1150.89181 449.030128,1156.16886 456.947734,1156.16886 C483.339754,1166.72295 512.370975,1166.72295 538.762995,1156.16886 C546.680601,1153.53034 551.959005,1150.89181 557.237409,1148.25329 L575.711823,1140.33772 L594.186237,1132.42215 C599.46464,1129.78363 604.743044,1127.14511 610.021448,1124.50658 C623.217458,1119.22954 636.413468,1121.86806 646.970276,1124.50658 C649.609478,1124.50658 652.24868,1127.14511 654.887882,1129.78363 L665.44469,1135.06068 L683.919103,1145.61477 C691.836709,1150.89181 702.393517,1156.16886 710.311123,1161.44591 C720.867931,1166.72295 739.342345,1172 765.734365,1172 L765.734365,1150.89181 C749.899153,1150.89181 741.981547,1148.25329 734.063941,1145.61477 C726.146335,1142.97625 715.589527,1140.33772 707.671921,1135.06068 C699.754315,1129.78363 689.197507,1124.50658 681.279902,1119.22954 L668.083892,1111.31397 L662.805488,1108.67544 C660.166286,1106.03692 657.527084,1106.03692 654.887882,1106.03692 C644.331074,1100.75987 633.774266,1100.75987 620.578256,1100.75987 C610.021448,1100.75987 602.103842,1103.3984 594.186237,1108.67544 L573.072621,1119.22954 L551.959005,1129.78363 C544.041399,1132.42215 538.762995,1135.06068 530.845389,1137.6992 C501.814168,1145.61477 470.143744,1142.97625 443.751724,1129.78363 C422.638109,1119.22954 404.163695,1100.75987 393.606887,1079.65169 C388.328483,1069.0976 383.050079,1055.90498 380.410877,1045.35089 L372.493271,1026.88123 C369.854069,1021.60418 367.214867,1013.68861 361.936463,1005.77304 C354.018857,992.580425 340.822847,982.026332 327.626838,976.749286 C324.987636,974.110763 319.709232,974.110763 317.07003,974.110763 L306.513222,971.472239 L288.038808,966.195193 L269.564394,960.918147 C264.28599,958.279624 259.007586,958.279624 253.729182,955.6411 C243.172375,950.364054 232.615567,945.087008 224.697961,937.171438 C198.305941,916.063253 182.470729,884.400975 182.470729,850.100174 C182.470729,842.184604 182.470729,834.269035 185.109931,823.714942 C187.749133,815.799373 190.388335,807.883803 193.027537,797.32971 L200.945143,770.944479 L203.584345,763.028909 C203.584345,760.390386 206.223547,757.751863 206.223547,755.11334 C206.223547,749.836294 208.862749,744.559247 208.862749,739.282201 C208.862749,726.089585 206.223547,715.535492 200.945143,702.342877 C198.305941,699.704353 198.305941,697.06583 195.666739,694.427307 L190.388335,686.511738 L179.831527,673.319122 L161.357114,646.93389 C156.07871,639.018321 150.800306,631.102751 148.161104,620.548658 C137.604296,594.163427 137.604296,562.501149 150.800306,533.477394 C158.717912,520.284778 166.635517,507.092162 177.192325,496.53807 C182.470729,491.261023 187.749133,485.983977 195.666739,483.345454 L216.780355,470.152838 L237.893971,456.960222 C245.811577,451.683176 253.729182,446.406129 259.007586,438.49056 C264.28599,430.57499 269.564394,422.659421 272.203596,412.105328 C272.203596,406.828282 274.842798,401.551236 274.842798,396.274189 L274.842798,383.081574 C274.842798,367.250435 277.482,354.057819 277.482,338.22668 C277.482,325.034064 282.760404,311.841448 288.038808,298.648832 C298.595616,272.263601 319.709232,251.155415 346.101251,240.601323 C356.658059,235.324276 369.854069,232.685753 383.050079,232.685753 C388.328483,232.685753 396.246089,232.685753 401.524493,232.685753 C406.802897,232.685753 414.720503,235.324276 419.998907,235.324276 L459.586936,243.239846 C475.422148,245.878369 491.25736,243.239846 504.45337,235.324276 C509.731773,232.685753 512.370975,230.04723 517.649379,227.408707 C520.288581,224.770184 520.288581,224.770184 522.927783,222.13166 L528.206187,216.854614 L546.680601,198.384952 C551.959005,193.107906 559.876611,185.192336 565.155015,179.91529 C570.433419,174.638243 578.351025,169.361197 583.629429,166.722674 C610.021448,150.891535 644.331074,145.614489 676.001498,153.530058 C678.6407,153.530058 681.279902,156.168581 686.558305,156.168581 C691.836709,158.807104 694.475911,158.807104 694.475911,158.807104 L694.475911,158.807104 C705.032719,164.084151 718.228729,171.99972 723.507133,177.276767 C726.146335,179.91529 731.424739,182.553813 734.063941,187.830859 L744.620749,198.384952 C749.899153,206.300521 757.816759,214.216091 763.095163,222.13166 L768.373566,227.408707 C771.012768,230.04723 771.012768,232.685753 773.65197,232.685753 C778.930374,235.324276 781.569576,240.601323 786.84798,243.239846 C797.404788,248.516892 807.961596,251.155415 821.157606,251.155415 C831.714414,251.155415 839.63202,248.516892 847.549626,248.516892 C855.467231,248.516892 863.384837,245.878369 871.302443,245.878369 L884.498453,243.239846 L895.055261,243.239846 C902.972867,243.239846 910.890473,243.239846 916.168877,245.878369 C945.200098,251.155415 971.592118,269.625077 990.066532,293.371786 C1003.26254,311.841448 1011.18015,335.588157 1011.18015,361.973388 L1011.18015,401.551236 L1011.18015,412.105328 C1011.18015,414.743851 1011.18015,420.020898 1011.18015,422.659421 C1013.81935,430.57499 1016.45855,438.49056 1019.09775,443.767606 C1021.73696,451.683176 1027.01536,456.960222 1032.29376,462.237268 C1034.93297,464.875792 1037.57217,467.514315 1040.21137,470.152838 L1048.12898,475.429884 L1079.7994,496.53807 C1100.91301,509.730685 1116.74823,528.200348 1124.66583,549.308533 C1137.86184,580.970811 1137.86184,617.910135 1122.02663,646.93389 C1116.74823,654.84946 1114.10902,660.126506 1108.83062,668.042075 L1090.35621,689.150261 C1085.0778,697.06583 1077.1602,702.342877 1071.88179,712.896969 C1066.60339,723.451062 1063.96419,734.005155 1061.32499,744.559247 C1061.32499,749.836294 1061.32499,757.751863 1061.32499,763.028909 C1061.32499,765.667433 1061.32499,768.305956 1063.96419,770.944479 L1066.60339,778.860048 L1074.52099,810.522326 C1077.1602,821.076419 1079.7994,828.991988 1079.7994,839.546081 C1079.7994,850.100174 1079.7994,858.015743 1079.7994,868.569836 C1074.52099,897.593591 1061.32499,926.617346 1037.57217,942.448485 C1024.37616,950.364054 1011.18015,958.279624 997.984138,960.918147 L950.478502,971.472239 C945.200098,971.472239 942.560896,974.110763 937.282493,974.110763 C932.004089,974.110763 926.725685,976.749286 924.086483,979.387809 C916.168877,984.664855 905.612069,989.941902 900.333665,997.857471 C897.694463,1000.49599 895.055261,1005.77304 892.416059,1011.05009 C889.776857,1016.32713 887.137655,1018.96566 887.137655,1024.2427 L876.580847,1047.98941 C873.941645,1055.90498 871.302443,1061.18203 868.663241,1069.0976 C866.024039,1074.37464 863.384837,1079.65169 860.745635,1084.92874 C852.82803,1095.48283 847.549626,1106.03692 836.992818,1113.95249 C815.879202,1129.78363 792.126384,1137.6992 768.373566,1140.33772 L768.373566,1169.36148 L771.012768,1169.36148 Z" id="Path" fill="#E7F8D9"></path>
                <path d="M737,541.612562 L737,990.102709 C737,1063.97167 676.343137,982.188177 602.5,982.188177 L602.5,982.188177 C528.656863,982.188177 468,1061.3335 468,990.102709 L468,444" id="Path" fill="#F4D4CE"></path>
                <g id="Page-1" transform="translate(318.000000, 50.000000)" fill="#429DE5">
                    <path d="M658.796875,837.163636 C571.65625,837.163636 481.875,800.212121 439.625,763.260606 C334,684.078788 149.15625,496.681818 72.578125,396.384848 C22.40625,330.4 -17.203125,206.348485 9.203125,113.969697 C22.40625,63.8212121 56.734375,26.869697 101.625,8.39393939 C114.828125,3.11515152 130.671875,0.475757576 143.875,0.475757576 C175.5625,0.475757576 201.96875,16.3121212 217.8125,40.0666667 L291.75,169.39697 C302.3125,190.512121 307.59375,214.266667 299.671875,235.381818 C294.390625,259.136364 275.90625,277.612121 257.421875,288.169697 L252.140625,293.448485 C241.578125,298.727273 231.015625,309.284848 228.375,322.481818 C225.734375,335.678788 231.015625,348.875758 238.9375,359.433333 L473.953125,596.978788 C484.515625,607.536364 497.71875,607.536364 503,607.536364 C518.84375,607.536364 534.6875,599.618182 539.96875,583.781818 L542.609375,578.50303 C558.453125,549.469697 587.5,530.993939 619.1875,530.993939 C635.03125,530.993939 650.875,536.272727 661.4375,541.551515 L793.46875,615.454545 C830.4375,639.209091 843.640625,684.078788 827.796875,731.587879 C801.390625,800.212121 740.65625,837.163636 658.796875,837.163636 L658.796875,837.163636 Z" id="Path"></path>
                </g>
                <path d="M660.095694,411.716981 L596.708134,475.113208 C580.861244,490.962264 559.732057,490.962264 543.885167,475.113208 L543.885167,475.113208 C528.038278,459.264151 528.038278,438.132075 543.885167,422.283019 L607.272727,358.886792 C623.119617,343.037736 644.248804,343.037736 660.095694,358.886792 L660.095694,358.886792 C673.301435,374.735849 673.301435,398.509434 660.095694,411.716981 Z" id="Path" fill="#F4D4CE"></path>
                <path d="M713.095694,464.716981 L649.708134,528.113208 C633.861244,543.962264 612.732057,543.962264 596.885167,528.113208 L596.885167,528.113208 C581.038278,512.264151 581.038278,491.132075 596.885167,475.283019 L660.272727,411.886792 C676.119617,396.037736 697.248804,396.037736 713.095694,411.886792 L713.095694,411.886792 C726.301435,427.735849 726.301435,448.867925 713.095694,464.716981 Z" id="Path" fill="#F4D4CE"></path>
                <path d="M766.095694,517.716981 L702.708134,581.113208 C686.861244,596.962264 665.732057,596.962264 649.885167,581.113208 L649.885167,581.113208 C634.038278,565.264151 634.038278,544.132075 649.885167,528.283019 L713.272727,464.886792 C729.119617,449.037736 750.248804,449.037736 766.095694,464.886792 L766.095694,464.886792 C779.301435,478.09434 779.301435,504.509434 766.095694,517.716981 Z" id="Path" fill="#F4D4CE"></path>
                <path d="M816.095694,570.358491 L752.708134,631.113208 C736.861244,646.962264 715.732057,646.962264 699.885167,631.113208 L699.885167,631.113208 C684.038278,615.264151 684.038278,594.132075 699.885167,578.283019 L763.272727,514.886792 C779.119617,499.037736 800.248804,499.037736 816.095694,514.886792 L816.095694,514.886792 C829.301435,530.735849 829.301435,554.509434 816.095694,570.358491 Z" id="Path" fill="#F4D4CE"></path>
                <path d="M668,794.456522 L668,744.271739 C668,651.826087 594.08,580.51087 504.32,580.51087 L504.32,543.532609 L504.32,432.597826 C504.32,390.336957 470,356 427.76,356 L427.76,356 C417.2,356 404,363.923913 404,379.771739 L404,757.478261 C404,805.021739 440.96,842 488.48,842 L488.48,842 L525.44,842" id="Path" fill="#F4D4CE"></path>
                <path d="M586.276923,483 C583.630769,483 580.984615,483 580.984615,480.374046 C578.338462,477.748092 578.338462,472.496183 580.984615,469.870229 L652.430769,398.969466 C655.076923,396.343511 660.369231,396.343511 663.015385,398.969466 C665.661538,401.59542 665.661538,406.847328 663.015385,409.473282 L591.569231,480.374046 C591.569231,483 588.923077,483 586.276923,483 Z" id="Path" fill="#E8AFAE"></path>
                <path d="M639.276923,536 C636.630769,536 633.984615,536 633.984615,533.374046 C631.338462,530.748092 631.338462,525.496183 633.984615,522.870229 L705.430769,451.969466 C708.076923,449.343511 713.369231,449.343511 716.015385,451.969466 C718.661538,454.59542 718.661538,459.847328 716.015385,462.473282 L644.569231,533.374046 C641.923077,536 641.923077,536 639.276923,536 Z" id="Path" fill="#E8AFAE"></path>
                <path d="M692.276923,588 C689.630769,588 686.984615,588 686.984615,585.374046 C684.338462,582.748092 684.338462,577.496183 686.984615,574.870229 L758.430769,503.969466 C761.076923,501.343511 766.369231,501.343511 769.015385,503.969466 C771.661538,506.59542 771.661538,511.847328 769.015385,514.473282 L697.569231,585.374046 C697.569231,588 694.923077,588 692.276923,588 Z" id="Path" fill="#E8AFAE"></path>
                <path d="M570.373222,846.8 L477.924202,846.8 C472.641401,846.8 470,841.6 470,839 C470,836.4 475.282801,831.2 477.924202,831.2 L570.373222,831.2 C575.656023,831.2 578.297424,836.4 578.297424,839 C580.938824,844.2 575.656023,846.8 570.373222,846.8 Z" id="Path" fill="#E8AFAE"></path>
                <path d="M720.828125,934 L483.171875,934 C456.765625,934 433,957.772278 433,984.185921 L433,1060.78548 C459.40625,1092.48186 504.296875,1105.68868 543.90625,1087.19913 L588.796875,1066.06821 C615.203125,1052.86139 646.890625,1052.86139 673.296875,1068.70958 L715.546875,1092.48186 C734.03125,1103.04731 752.515625,1105.68868 771,1103.04731 L771,986.827285 C771,957.772278 747.234375,934 720.828125,934 Z" id="Path" fill="#53B5F9"></path>
                <path d="M563.016661,317 C560.385502,317 557.754342,314.364677 557.754342,311.729354 L434.089862,95.632878 C431.458703,90.3622322 434.089862,87.7269094 436.721021,85.0915865 C441.983339,82.4562636 444.614498,85.0915865 447.245658,87.7269094 L570.910138,303.823386 C573.541297,309.094031 570.910138,311.729354 568.278979,314.364677 C565.64782,317 565.64782,317 563.016661,317 Z" id="Path" fill="#FFFFFF"></path>
                <path d="M1108.7191,776 C1106.07865,776 1106.07865,776 1103.4382,776 L884.280899,656.882353 C879,654.235294 879,651.588235 879,646.294118 C881.640449,641 884.280899,641 889.561798,641 L1108.7191,760.117647 C1114,762.764706 1114,765.411765 1114,770.705882 C1114,773.352941 1114,776 1108.7191,776 Z" id="Path" fill="#FFFFFF"></path>
                <g id="Group" transform="translate(0.000000, 182.000000)" fill="#F9E1AD">
                    <path d="M220.133333,130.088889 C220.133333,130.088889 217.488889,127.444444 217.488889,127.444444 C214.844444,124.8 212.2,124.8 212.2,124.8 C209.555556,124.8 206.911111,124.8 204.266667,124.8 C196.333333,124.8 191.044444,127.444444 183.111111,124.8 C175.177778,124.8 169.888889,122.155556 161.955556,116.866667 C156.666667,111.577778 154.022222,106.288889 148.733333,101 C146.088889,95.7111111 140.8,87.7777778 132.866667,90.4222222 C124.933333,93.0666667 127.577778,103.644444 130.222222,108.933333 C132.866667,116.866667 132.866667,122.155556 132.866667,130.088889 C132.866667,138.022222 130.222222,143.311111 124.933333,148.6 C119.644444,153.888889 114.355556,159.177778 109.066667,161.822222 C103.777778,167.111111 95.8444444,169.755556 98.4888889,177.688889 C98.4888889,180.333333 101.133333,180.333333 101.133333,182.977778 C103.777778,185.622222 106.422222,185.622222 111.711111,182.977778 C117,182.977778 124.933333,180.333333 130.222222,180.333333 C138.155556,180.333333 146.088889,180.333333 151.377778,185.622222 C156.666667,188.266667 161.955556,196.2 164.6,201.488889 C167.244444,204.133333 167.244444,206.777778 169.888889,209.422222 C172.533333,212.066667 172.533333,214.711111 177.822222,217.355556 C180.466667,220 185.755556,217.355556 188.4,214.711111 C191.044444,212.066667 191.044444,206.777778 188.4,204.133333 C185.755556,190.911111 183.111111,177.688889 191.044444,164.466667 C196.333333,159.177778 201.622222,153.888889 206.911111,148.6 C209.555556,145.955556 212.2,145.955556 214.844444,143.311111 C217.488889,140.666667 220.133333,140.666667 222.777778,138.022222 C220.133333,135.377778 220.133333,132.733333 220.133333,130.088889 Z" id="Path"></path>
                    <path d="M109.066667,0.511111111 C117,0.511111111 122.288889,5.8 127.577778,11.0888889 C138.155556,24.3111111 135.511111,40.1777778 122.288889,50.7555556 C109.066667,61.3333333 93.2,58.6888889 82.6222222,45.4666667 C74.6888889,34.8888889 77.3333333,16.3777778 90.5555556,5.8 C93.2,3.15555556 95.8444444,3.15555556 98.4888889,3.15555556 C101.133333,0.511111111 106.422222,0.511111111 109.066667,0.511111111 Z M114.355556,40.1777778 C119.644444,34.8888889 122.288889,26.9555556 117,21.6666667 C111.711111,16.3777778 103.777778,13.7333333 98.4888889,19.0222222 C93.2,24.3111111 90.5555556,32.2444444 95.8444444,37.5333333 C98.4888889,42.8222222 106.422222,42.8222222 111.711111,42.8222222 C111.711111,40.1777778 114.355556,40.1777778 114.355556,40.1777778 Z" id="Shape"></path>
                    <path d="M16.5111111,159.177778 C19.1555556,153.888889 19.1555556,151.244444 19.1555556,145.955556 C24.4444444,148.6 27.0888889,148.6 32.3777778,148.6 C29.7333333,153.888889 29.7333333,156.533333 29.7333333,161.822222 C27.0888889,159.177778 21.8,159.177778 16.5111111,159.177778 M0.644444444,172.4 C0.644444444,172.4 3.28888889,172.4 0.644444444,172.4 C19.1555556,164.466667 27.0888889,167.111111 40.3111111,177.688889 C42.9555556,180.333333 45.6,177.688889 42.9555556,175.044444 C35.0222222,159.177778 35.0222222,151.244444 48.2444444,138.022222 C48.2444444,138.022222 48.2444444,135.377778 48.2444444,135.377778 C48.2444444,135.377778 45.6,135.377778 45.6,135.377778 C29.7333333,143.311111 21.8,143.311111 8.57777778,130.088889 C5.93333333,127.444444 3.28888889,130.088889 5.93333333,132.733333 C13.8666667,148.6 13.8666667,156.533333 0.644444444,172.4 C0.644444444,169.755556 0.644444444,169.755556 0.644444444,172.4 L0.644444444,172.4 Z" id="Shape"></path>
                </g>
                <path d="M1000.46846,0.461664974 C881.674795,-7.45791298 784,87.5770225 784,203.730832 C784,206.370692 784,293.486049 784,364.762251 C784,388.520985 802.479015,407 826.237749,407 C892.234232,407 984.629308,407 987.269168,407 C1103.42298,407 1198.45791,309.325205 1190.53834,190.531536 C1182.61876,87.5770225 1100.78312,5.74138361 1000.46846,0.461664974 Z" id="Path" fill="#F7C951"></path>
                <path d="M958.793115,224.125638 L958.793115,205.618478 C958.793115,200.330718 958.793115,197.686838 961.428004,192.399078 C964.062893,189.755198 966.697782,187.111318 969.332671,184.467438 C971.967561,181.823558 977.237339,181.823558 979.872228,181.823558 C985.142006,181.823558 987.776895,179.179678 990.411784,179.179678 C995.681563,176.535799 1000.95134,173.891919 1003.58623,168.604159 C1006.22112,163.316399 1008.85601,158.028639 1008.85601,152.740879 C1008.85601,147.453119 1006.22112,142.165359 1003.58623,139.521479 C998.316452,134.233719 993.046674,134.233719 987.776895,134.233719 C982.507117,134.233719 977.237339,134.233719 974.60245,136.877599 C969.332671,139.521479 964.062893,144.809239 961.428004,147.453119 L958.793115,150.096999 C948.253559,158.028639 940.348891,163.316399 932.444224,163.316399 C927.174446,163.316399 921.904667,160.672519 919.269778,158.028639 C914,152.740879 914,147.453119 914,142.165359 C914,128.945959 921.904667,115.726559 935.079113,102.50716 C950.888448,91.9316399 966.697782,84 987.776895,84 C1006.22112,84 1027.30023,89.2877599 1040.47468,105.15104 C1066.82357,128.945959 1069.45846,168.604159 1045.74446,197.686838 C1037.83979,208.262358 1024.66534,216.193998 1011.4909,218.837878 C1008.85601,218.837878 1006.22112,221.481758 1006.22112,226.769518 C1006.22112,232.057278 1003.58623,239.988918 1000.95134,245.276677 C995.681563,250.564437 990.411784,253.208317 982.507117,253.208317 C977.237339,253.208317 969.332671,250.564437 964.062893,245.276677 C961.428004,237.345038 958.793115,232.057278 958.793115,224.125638 Z M956.158226,290.222637 C956.158226,282.290997 958.793115,277.003237 964.062893,271.715477 C969.332671,266.427717 977.237339,263.783837 982.507117,263.783837 C998.316452,263.783837 1008.85601,277.003237 1008.85601,290.222637 L1008.85601,290.222637 C1008.85601,298.154277 1006.22112,303.442037 1000.95134,308.729796 C995.681563,314.017556 987.776895,316.661436 982.507117,316.661436 C969.332671,319.305316 956.158226,306.085916 956.158226,290.222637 Z" id="Shape" fill="#FFFFFF"></path>
            </g>
        </g>
    </g>
</svg>

